HIERARCHY
ROOT Hips
{
	OFFSET 51.445999 -32.196014 97.091393
	CHANNELS 6 Xposition Yposition Zposition Xrotation Yrotation Zrotation
	JOINT spine
	{
		OFFSET 0.000000 -0.458069 7.965683
		CHANNELS 3 Xrotation Yrotation Zrotation
		JOINT spine1
		{
			OFFSET 0.000000 -0.000004 10.243103
			CHANNELS 3 Xrotation Yrotation Zrotation
			JOINT spine2
			{
				OFFSET 0.000000 0.000000 9.814751
				CHANNELS 3 Xrotation Yrotation Zrotation
				JOINT Neck
				{
					OFFSET 0.000000 -1.201385 25.198608
					CHANNELS 3 Xrotation Yrotation Zrotation
					JOINT Head
					{
						OFFSET 0.000000 -0.000004 7.613144
						CHANNELS 3 Xrotation Yrotation Zrotation
						End Site
						{
							OFFSET 0.000000 6.077328 18.428101
						}
					}
				}
				JOINT RightShoulder
				{
					OFFSET -4.132698 0.575447 10.599213
					CHANNELS 3 Xrotation Yrotation Zrotation
					JOINT RightArm
					{
						OFFSET 0.000000 0.000000 13.901794
						CHANNELS 3 Xrotation Yrotation Zrotation
						JOINT RightArmRoll
						{
							OFFSET 0.000000 -0.000004 7.017883
							CHANNELS 3 Xrotation Yrotation Zrotation
							JOINT RightForeArm
							{
								OFFSET 0.000000 -0.000004 20.440598
								CHANNELS 3 Xrotation Yrotation Zrotation
								JOINT RightForeArmRoll
								{
									OFFSET 0.000000 0.000000 7.875153
									CHANNELS 3 Xrotation Yrotation Zrotation
									JOINT RightHand
									{
										OFFSET 0.000000 -0.000004 15.803696
										CHANNELS 3 Xrotation Yrotation Zrotation
										End Site
										{
											OFFSET 0.000000 0.000000 0.100006
										}
									}
								}
							}
						}
					}
				}
				JOINT LeftShoulder
				{
					OFFSET 4.132698 0.575447 10.599213
					CHANNELS 3 Xrotation Yrotation Zrotation
					JOINT LeftArm
					{
						OFFSET 0.000000 0.000000 13.901794
						CHANNELS 3 Xrotation Yrotation Zrotation
						JOINT LeftArmRoll
						{
							OFFSET 0.000000 -0.000004 7.017883
							CHANNELS 3 Xrotation Yrotation Zrotation
							JOINT LeftForeArm
							{
								OFFSET 0.000000 -0.000004 20.440598
								CHANNELS 3 Xrotation Yrotation Zrotation
								JOINT LeftForeArmRoll
								{
									OFFSET 0.000000 0.000000 7.875153
									CHANNELS 3 Xrotation Yrotation Zrotation
									JOINT LeftHand
									{
										OFFSET 0.000000 -0.000004 15.803696
										CHANNELS 3 Xrotation Yrotation Zrotation
										End Site
										{
											OFFSET 0.000000 0.000000 0.100006
										}
									}
								}
							}
						}
					}
				}
			}
		}
	}
	JOINT RightUpLeg
	{
		OFFSET -7.060478 1.086100 -1.294701
		CHANNELS 3 Xrotation Yrotation Zrotation
		JOINT RightUpLegRoll
		{
			OFFSET 0.000000 -0.000004 18.530800
			CHANNELS 3 Xrotation Yrotation Zrotation
			JOINT RightLeg
			{
				OFFSET 0.000000 0.000004 -22.947601
				CHANNELS 3 Xrotation Yrotation Zrotation
				JOINT RightLegRoll
				{
					OFFSET 0.000000 -0.000004 23.022598
					CHANNELS 3 Xrotation Yrotation Zrotation
					JOINT RightFoot
					{
						OFFSET 0.000000 -0.000002 19.162514
						CHANNELS 3 Xrotation Yrotation Zrotation
						JOINT RightToeBase
						{
							OFFSET 0.000000 -0.000004 16.018799
							CHANNELS 3 Xrotation Yrotation Zrotation
							End Site
							{
								OFFSET 0.006790 0.894207 7.757812
							}
						}
					}
				}
			}
		}
	}
	JOINT LeftUpLeg
	{
		OFFSET 7.060478 1.086100 -1.294701
		CHANNELS 3 Xrotation Yrotation Zrotation
		JOINT LeftUpLegRoll
		{
			OFFSET 0.000000 -0.000004 18.530899
			CHANNELS 3 Xrotation Yrotation Zrotation
			JOINT LeftLeg
			{
				OFFSET 0.000000 -0.000004 22.947510
				CHANNELS 3 Xrotation Yrotation Zrotation
				JOINT LeftLegRoll
				{
					OFFSET 0.000000 -0.000004 23.235504
					CHANNELS 3 Xrotation Yrotation Zrotation
					JOINT LeftFoot
					{
						OFFSET 0.000000 -0.000002 18.949600
						CHANNELS 3 Xrotation Yrotation Zrotation
						JOINT LeftToeBase
						{
							OFFSET 0.000000 -0.000004 16.018799
							CHANNELS 3 Xrotation Yrotation Zrotation
							End Site
							{
								OFFSET -0.030430 0.894207 7.757812
							}
						}
					}
				}
			}
		}
	}
}
MOTION
Frames: 5
Frame Time: 0.041667
52.981506 2.653114 54.287197 -11.936238 -0.151449 0.000847 4.788254 -0.271024 -0.634247 13.589527 -0.585915 -1.232869 15.234564 -0.600627 -1.225688 -19.159475 13.416157 3.377663 26.491568 -12.317285 3.138871 -7.868258 -51.411350 -8.709810 -50.985866 -138.820521 -67.777477 -0.000002 -0.000000 0.000001 59.456879 -8.115444 1.404059 -0.000010 0.000002 -3.000012 -5.000176 -7.999047 0.000100 -23.812321 60.107488 28.119199 116.135865 47.903921 -87.689554 -0.000000 0.000016 0.000002 69.388793 9.419926 -1.727019 -0.000013 -0.000002 3.000003 -5.000021 7.998911 -0.000109 -78.885147 -168.212943 4.066710 179.999991 -0.000005 -1.680003 76.998396 5.448678 3.432943 -0.000002 -0.000001 2.615160 70.926214 6.906995 1.957377 29.191190 -7.222730 2.207491 -79.623716 166.587658 -3.875573 -0.000020 -0.000005 -1.450309 -96.265226 -3.646541 -0.737641 -0.000003 0.000000 -2.196730 63.462839 -7.278796 -1.594507 31.505931 7.305202 -0.782531 
52.973606 2.674706 54.293282 -11.929641 -0.151337 0.000087 4.788283 -0.271523 -0.634247 13.588828 -0.586902 -1.233277 15.233764 -0.601620 -1.226076 -19.142421 13.436889 3.380823 26.489977 -12.331931 3.142011 -7.866888 -51.403628 -8.707506 -50.976434 -138.821027 -67.772566 -0.000000 0.000000 -0.000002 59.464713 -8.113532 1.402881 -0.000007 0.000003 -3.000012 -5.000177 -7.999043 0.000101 -23.819653 60.114797 28.127598 116.131780 47.911363 -87.682205 -0.000000 0.000017 0.000002 69.402925 9.415869 -1.725061 -0.000010 -0.000002 3.000000 -5.000023 7.998913 -0.000108 -78.893370 -168.218093 4.064554 179.999991 -0.000005 -1.680003 76.998205 5.449804 3.433279 -0.000002 -0.000001 2.615371 70.925559 6.907220 1.957254 29.187744 -7.222722 2.209133 -79.631932 166.590267 -3.872946 -0.000020 -0.000004 -1.450310 -96.265895 -3.646780 -0.738672 -0.000003 0.000000 -2.196730 63.459943 -7.277626 -1.597423 31.508257 7.305199 -0.782145 
52.975208 2.671623 54.288895 -11.923244 -0.151265 -0.000703 4.788334 -0.272041 -0.634247 13.588130 -0.587938 -1.233715 15.233070 -0.602661 -1.226491 -19.125602 13.457988 3.384153 26.488423 -12.346938 3.145306 -7.865533 -51.395603 -8.705185 -50.966315 -138.822161 -67.766603 -0.000001 -0.000000 0.000000 59.472151 -8.111608 1.401674 -0.000008 0.000001 -3.000011 -5.000177 -7.999046 0.000099 -23.827692 60.122180 28.136785 116.126712 47.919255 -87.673223 -0.000000 0.000017 0.000001 69.417255 9.411765 -1.723028 -0.000011 -0.000004 2.999999 -5.000022 7.998912 -0.000104 -78.901239 -168.223311 4.063014 179.999991 -0.000005 -1.680002 76.997938 5.450993 3.433727 -0.000002 -0.000001 2.615591 70.924903 6.907487 1.957342 29.184114 -7.222721 2.210837 -79.639876 166.592576 -3.870895 -0.000020 -0.000004 -1.450310 -96.266865 -3.646906 -0.738710 -0.000004 -0.000000 -2.196731 63.457040 -7.276450 -1.600241 31.511187 7.305207 -0.781571 
52.976509 2.638950 54.279598 -11.916944 -0.151220 -0.001514 4.788392 -0.272572 -0.634246 13.587333 -0.589006 -1.234165 15.232369 -0.603734 -1.226926 -19.108909 13.479364 3.387586 26.486903 -12.362215 3.148714 -7.864188 -51.387372 -8.702866 -50.956196 -138.823281 -67.760756 -0.000000 -0.000000 -0.000001 59.479371 -8.109683 1.400450 -0.000010 0.000002 -3.000009 -5.000177 -7.999046 0.000098 -23.835986 60.129618 28.146296 116.122778 47.926860 -87.665601 0.000000 0.000016 0.000001 69.431707 9.407687 -1.721005 -0.000013 -0.000005 3.000001 -5.000019 7.998912 -0.000106 -78.909114 -168.228529 4.061289 179.999991 -0.000004 -1.680003 76.997679 5.452202 3.434077 -0.000001 -0.000001 2.615810 70.924445 6.907712 1.957408 29.180272 -7.222727 2.212548 -79.647833 166.594884 -3.869045 -0.000020 -0.000005 -1.450310 -96.267985 -3.646967 -0.739761 -0.000004 0.000000 -2.196729 63.454144 -7.275278 -1.603158 31.514530 7.305213 -0.780854 
52.976307 2.651363 54.284603 -11.910642 -0.151190 -0.002337 4.788454 -0.273110 -0.634247 13.586634 -0.590093 -1.234630 15.231672 -0.604827 -1.227377 -19.092332 13.500832 3.391073 26.485397 -12.377671 3.152195 -7.862863 -51.379039 -8.700551 -50.946091 -138.824415 -67.754916 -0.000000 -0.000001 -0.000001 59.486385 -8.107808 1.399199 -0.000009 0.000004 -3.000009 -5.000176 -7.999045 0.000098 -23.844622 60.137200 28.156200 116.117860 47.934910 -87.656626 -0.000002 0.000016 -0.000000 69.446283 9.403633 -1.719177 -0.000012 -0.000002 3.000001 -5.000020 7.998912 -0.000107 -78.916982 -168.233734 4.059551 179.999991 -0.000005 -1.680002 76.997337 5.453477 3.434440 -0.000001 -0.000001 2.616042 70.924015 6.907975 1.957481 29.176427 -7.222730 2.214288 -79.655893 166.596865 -3.866402 -0.000020 -0.000005 -1.450310 -96.269194 -3.647082 -0.739803 -0.000004 -0.000000 -2.196729 63.451242 -7.274108 -1.606075 31.518167 7.305210 -0.780066 
